<svg width="60" height="60" viewBox="0 0 60 60" fill="none" xmlns="http://www.w3.org/2000/svg">
<path fill-rule="evenodd" clip-rule="evenodd" d="M34.3429 0L26.5479 10.0891L15.8031 3.19147L15.4476 15.9133L2.68658 16.6189L9.91298 27.1154L0 35.1576L12.045 39.4232L8.77434 51.7273L21.0383 48.1261L25.6549 60L33.4521 49.9124L44.1984 56.8137L44.5516 44.0874L57.3164 43.3841L50.0848 32.8824L60 24.8424V24.8417L47.9535 20.5768L51.2234 8.27419L38.9653 11.8702L34.3429 0Z" fill="#F28CD7"/>
<path fill-rule="evenodd" clip-rule="evenodd" d="M31.5334 19.7917C31.3645 20.5596 30.6035 21.0435 29.835 20.8775C29.0658 20.7101 28.5776 19.9525 28.7473 19.1875C28.9147 18.4195 29.6765 17.9364 30.4464 18.1016C31.2133 18.2705 31.7023 19.0281 31.5334 19.7917Z" fill="white"/>
<path fill-rule="evenodd" clip-rule="evenodd" d="M40.5465 37.8995C40.2906 37.1499 40.1622 36.8482 40.1069 36.3159C40 35.269 39.9521 33.9812 40.8061 34.6948C41.469 35.2359 42.3134 36.2021 42.7227 35.9936C43.4174 35.6397 44.1077 34.8174 44.8142 34.7565C46.0229 34.6376 44.6217 36.3996 44.5819 36.7939C44.5037 37.542 45.9572 38.2196 46.146 39.133C46.3193 40.0162 44.5103 39.4318 43.9904 39.4611C42.6077 39.5646 44.1895 41.1938 43.5243 41.7231C42.9779 42.1805 42.1202 40.5213 41.7382 40.301C41.135 39.9295 40.4683 40.2555 39.7721 40.2673C38.6246 40.3517 38.9521 39.409 39.4735 38.8437C39.9277 38.351 40.0878 38.18 40.5465 37.8995Z" fill="white"/>
<path fill-rule="evenodd" clip-rule="evenodd" d="M20.5759 37.6866C20.9402 37.6711 21.4336 37.5595 21.9284 36.4663C22.1585 35.9524 22.3613 34.3879 21.6725 34.0575C21.0383 33.7536 20.4977 35.0442 20.351 35.4267C20.1909 35.8401 19.8045 36.9502 19.9284 37.3356C19.9771 37.4891 20.185 37.7027 20.5759 37.6866ZM17.5589 44.4307C17.539 42.7465 17.5316 41.0726 17.6769 39.3913C17.865 37.2504 18.1187 34.1485 19.9749 32.7103C20.8001 32.0716 22.0044 31.9511 22.8598 32.6031C23.7706 33.2962 24.0257 34.5619 23.9704 35.6404C23.8487 37.9619 22.0995 40.2319 19.5663 39.3509C19.4719 40.3568 19.4262 41.3663 19.4136 42.3758C19.4055 43.0071 19.5162 43.7222 19.435 44.3456C19.4955 45.5496 17.6135 45.637 17.5589 44.4307Z" fill="white"/>
<path fill-rule="evenodd" clip-rule="evenodd" d="M26.199 41.6952C26.4387 42.2399 26.7772 42.4506 26.9977 42.5079C27.1201 42.5395 27.3738 42.5013 27.6231 42.3736C27.8679 42.2451 28.1504 42.0138 28.4203 41.6724C28.9645 40.9904 29.4468 39.8788 29.6282 38.4795C29.6872 38.0302 29.7175 37.5507 29.7101 37.0493C29.6968 35.8636 29.4697 35.1089 29.2278 34.7087C28.98 34.3086 28.7883 34.2374 28.5921 34.2014C28.3628 34.1662 28.0117 34.2719 27.7042 34.5524C26.8723 35.2623 26.1504 37.1675 25.9505 38.8414C25.9203 39.0771 25.8967 39.3062 25.8841 39.5271L25.8827 39.5286C25.8274 40.3847 25.9645 41.1651 26.199 41.6952ZM26.4697 44.3111C25.4948 44.0658 24.8532 43.3016 24.4771 42.4433C24.0973 41.5682 23.9402 40.5234 24.0088 39.4104H24.0103C24.0265 39.1432 24.0538 38.873 24.0884 38.5999C24.365 36.6477 25.0272 34.4848 26.4424 33.1677C27.0744 32.598 27.9188 32.2346 28.834 32.3484C29.6253 32.4416 30.3856 32.9592 30.8473 33.7602C31.3178 34.5626 31.5656 35.6257 31.5884 37.0236C31.5951 37.6139 31.5611 38.1821 31.4918 38.7218C31.1437 41.2393 30.0685 43.1731 28.494 44.0277C27.9675 44.3052 27.362 44.4425 26.7536 44.3624C26.7492 44.3617 26.7455 44.361 26.7403 44.3602C26.6504 44.3478 26.5597 44.3316 26.4697 44.3111Z" fill="white"/>
<path fill-rule="evenodd" clip-rule="evenodd" d="M34.8074 37.5668C35.6142 37.6454 36.0684 37.0015 36.2683 36.2945C36.4047 35.8224 36.5913 34.5009 35.9917 34.2153C35.4984 33.9774 35.0301 34.6918 34.8907 35.0346C34.727 35.4171 34.6016 35.8687 34.5286 36.2776C34.4851 36.5206 34.2167 37.4435 34.8074 37.5668ZM32.7779 44.0136C32.7779 42.6943 32.5109 41.353 32.4777 40.0278C32.4268 37.9567 32.3332 35.2395 33.6156 33.4818C34.2594 32.5986 35.5293 32.0678 36.5972 32.443C37.7196 32.8394 38.2026 34.0567 38.2616 35.1558C38.3789 37.3891 36.8664 39.8736 34.3465 39.3854C34.356 40.7634 34.4467 42.1437 34.6075 43.5137C34.665 43.9887 34.6311 44.46 34.1488 44.714C33.5795 45.0158 32.8627 44.648 32.7779 44.0136Z" fill="white"/>
<path fill-rule="evenodd" clip-rule="evenodd" d="M40.9289 31.8175C39.996 31.6919 38.718 30.8322 38.909 29.7522C39.0012 29.2332 39.4429 28.8139 39.9709 28.7853C40.5543 28.7523 41.0063 29.579 41.1951 29.4791C41.3832 29.3815 39.1656 25.5446 41.1612 23.7099C41.8773 23.0528 42.8765 22.8877 43.8116 23.058C44.6442 23.21 45.4046 23.9045 44.9518 24.809C44.7689 25.1731 44.3972 25.4228 43.9879 25.4543C43.6678 25.4786 43.4038 25.2855 43.0963 25.2936C42.2025 25.32 42.9982 27.1195 43.1199 27.5071C43.4311 28.4931 43.8375 29.6891 43.288 30.667C42.8316 31.4805 41.85 31.9518 40.9289 31.8175Z" fill="white"/>
<path fill-rule="evenodd" clip-rule="evenodd" d="M17.1018 30.8567C16.4624 30.7392 16.0398 30.1262 16.1593 29.4889L18.8658 15.0564C18.9853 14.4192 19.6003 13.9992 20.2389 14.1182C20.8791 14.2364 21.3001 14.8494 21.1807 15.4867L18.4757 29.9199C18.3614 30.5351 17.7832 30.947 17.1674 30.8677C17.1453 30.8655 17.1224 30.8618 17.1018 30.8567Z" fill="white"/>
<path fill-rule="evenodd" clip-rule="evenodd" d="M17.9962 25.9454C17.3628 25.7979 16.969 25.1672 17.1164 24.5373C17.2285 24.1416 17.3414 24.0571 17.4321 23.9213C17.528 23.8024 17.6231 23.6996 17.7322 23.5924C17.9468 23.378 18.2079 23.1445 18.5117 22.8839C19.1179 22.3656 19.89 21.7511 20.6555 21.1542C22.1858 19.9641 23.6909 18.8533 23.6954 18.8511C24.2175 18.4649 24.9557 18.5735 25.3436 19.0941C25.7308 19.6146 25.6209 20.3488 25.098 20.7342C25.0973 20.7364 24.0973 21.4735 22.907 22.3847C21.7212 23.2936 20.331 24.3897 19.6327 25.0284C19.4844 25.1628 19.3657 25.2817 19.3104 25.3419C19.0862 25.7736 18.6076 26.0313 18.1113 25.966C18.0729 25.9608 18.0353 25.9535 17.9962 25.9454Z" fill="white"/>
<path fill-rule="evenodd" clip-rule="evenodd" d="M21.2889 29.7619C21.2889 29.759 21.0249 28.4661 20.7291 26.9353C20.4334 25.4002 20.1089 23.6484 19.9791 22.6485C19.8958 22.0068 20.3515 21.4187 20.9968 21.335C21.6421 21.252 22.2321 21.7058 22.3154 22.3482C22.4275 23.2167 22.7505 24.9802 23.0433 26.4933C23.3361 28.0102 23.5971 29.292 23.5979 29.2957C23.7284 29.93 23.3161 30.549 22.679 30.6782C22.547 30.7039 22.4172 30.7083 22.2903 30.6929C21.8051 30.629 21.3921 30.2663 21.2889 29.7619Z" fill="white"/>
<path fill-rule="evenodd" clip-rule="evenodd" d="M24.8891 31.1507C24.249 30.8343 24.0985 30.0979 24.3979 29.4951C24.7541 28.78 25.1066 28.062 25.4562 27.3425C25.9024 26.4248 26.3456 25.5063 26.7733 24.5798C26.9761 24.1408 27.1782 23.7003 27.364 23.2531C27.5012 22.9257 27.5425 22.5777 27.7645 22.2899C28.2534 21.6504 29.2748 21.7356 29.6914 22.4066C30.0956 23.0564 29.6597 23.8008 29.5093 24.4616C29.291 25.43 28.6553 28.0084 29.2984 28.272C30.0941 28.4776 30.7586 26.1583 31.9031 26.5907C32.8264 26.9409 32.4024 28.0657 32.0145 28.7543C31.5063 29.6478 30.6863 30.3864 29.6258 30.4943C29.0956 30.5501 28.5469 30.4319 28.0801 30.1691C27.617 29.9092 27.2438 29.1471 27.1907 29.1545C27.0071 29.1831 26.4982 31.4811 24.8891 31.1507Z" fill="white"/>
<path fill-rule="evenodd" clip-rule="evenodd" d="M36.2305 27.512C36.5011 26.9694 37.1228 24.6825 36.9318 24.4615C36.8809 24.4035 36.6405 24.4263 36.5498 24.4622C36.4598 24.4989 36.3204 24.5804 36.1228 24.8212C36.1029 24.8352 35.9303 25.1303 35.8072 25.4879C35.6752 25.852 35.5586 26.3013 35.5041 26.7213C35.4524 27.0979 35.4554 27.4533 35.5026 27.686C35.5476 27.9283 35.6221 28.0296 35.7268 28.0333C35.8344 28.0355 36.0999 27.7851 36.2305 27.512ZM34.0948 29.7872C33.7305 29.4774 33.4923 29.0868 33.3485 28.7021C33.0638 27.9268 33.0771 27.153 33.1678 26.4173C33.2496 25.8006 33.4038 25.2118 33.5896 24.6935C33.7858 24.17 33.9783 23.742 34.2872 23.3499C34.6825 22.8595 35.1508 22.4976 35.6538 22.2935C36.1427 22.0908 36.6442 22.0512 37.0712 22.1026C37.0822 21.5218 37.0793 20.947 37.066 20.3993C37.0313 18.9427 36.9119 17.6615 36.8094 17.0925C36.6965 16.4545 37.1243 15.8459 37.7651 15.7336C38.4045 15.622 39.0151 16.0478 39.1294 16.6865C39.2644 17.4699 39.3802 18.7841 39.4215 20.3413C39.4598 21.8919 39.4193 23.6561 39.2091 25.2632C39.0889 26.1721 38.9178 27.0311 38.6538 27.7983C38.3846 28.5604 38.0424 29.2579 37.4111 29.7968C36.9974 30.1543 36.4038 30.3995 35.7917 30.3848C35.6634 30.3841 35.5402 30.3746 35.4215 30.3591C35.4163 30.3584 35.4119 30.3569 35.4052 30.3569C34.9207 30.2938 34.4517 30.0948 34.0948 29.7872Z" fill="white"/>
</svg>
