<svg width="60" height="60" viewBox="0 0 60 60" fill="none" xmlns="http://www.w3.org/2000/svg">
<path fill-rule="evenodd" clip-rule="evenodd" d="M38.9641 11.8693L51.2224 8.27198L47.9519 20.5764L60 24.843L50.0845 32.8839L57.315 43.3848L44.5496 44.0877L44.1969 56.8138L33.451 49.9125L25.6545 60L21.0382 48.1262L8.77382 51.728L12.0443 39.4243L0 35.157L9.91246 27.1161L2.68572 16.6182L15.4467 15.9123L15.8016 3.19071L26.5475 10.0883L34.3409 0L38.9641 11.8693Z" fill="#00BCFF"/>
<path fill-rule="evenodd" clip-rule="evenodd" d="M27.8835 41.7413C28.0938 41.8441 30.1676 41.7751 30.2708 41.7031C30.3763 41.6348 30.414 35.3367 30.3439 35.1964C30.2708 35.0568 27.8474 35.1618 27.8474 35.1618C27.7079 35.1266 27.6725 41.6348 27.8835 41.7413ZM25.2076 33.0657C25.5022 32.8369 33.1427 32.4775 33.111 33.0972C33.0764 33.7184 33.1427 44.3934 32.8473 44.4256C32.5526 44.4579 25.3071 44.5232 25.2732 44.2936C25.2392 44.0648 24.913 33.293 25.2076 33.0657Z" fill="white"/>
<path fill-rule="evenodd" clip-rule="evenodd" d="M37.8581 37.1162C37.8581 37.2662 40.745 37.1544 40.858 37.1162C40.9718 37.0787 40.9718 35.2616 40.8995 35.1483C40.8211 35.0366 37.7782 35.1483 37.7782 35.1483C37.629 35.1101 37.8581 36.9639 37.8581 37.1162ZM35.1746 44.3934C34.9779 44.2283 34.941 32.8196 35.2236 32.6823C35.5032 32.5421 43.1082 32.5421 43.1429 32.8369C43.1745 33.131 43.3388 39.2011 43.0765 39.3984C42.8151 39.5934 38.1256 39.5619 38.1256 39.5619C38.1256 39.5619 38.158 44.2936 37.9628 44.4256C37.7646 44.5569 35.1746 44.3934 35.1746 44.3934Z" fill="white"/>
<path fill-rule="evenodd" clip-rule="evenodd" d="M17.8965 37.1491C17.941 37.3089 21.1587 37.0283 21.1587 37.0283C21.1587 37.0283 21.2386 35.5069 21.1587 35.3058C21.0774 35.104 18.0601 35.1858 17.941 35.2263C17.8182 35.2646 17.8596 36.9878 17.8965 37.1491ZM15.1581 44.4616C14.9795 44.2838 15.0171 32.9194 15.1942 32.9194C15.3698 32.9194 23.2559 32.7783 23.2921 32.9554C23.3268 33.1324 23.3614 39.2768 23.1489 39.4186C22.9349 39.5611 18.2613 39.7734 18.2613 39.7734C18.2613 39.7734 18.3328 44.3903 18.1889 44.4976C18.0472 44.6041 15.1581 44.4616 15.1581 44.4616Z" fill="white"/>
<path fill-rule="evenodd" clip-rule="evenodd" d="M42.4362 30.7803C42.5251 30.8486 45.2183 30.8141 45.253 30.709C45.2892 30.6025 45.2236 19.6867 45.1324 19.6042C45.0397 19.5224 42.2779 19.6042 42.2779 19.6042C42.2779 19.6042 39.8326 22.3643 39.7241 22.4348C39.6193 22.5061 37.3345 19.6042 37.2486 19.6042C37.1627 19.6042 34.7731 19.4384 34.7889 19.6042C34.8017 19.7715 34.6299 30.7803 34.7889 30.8508C34.9457 30.9236 37.2991 30.8876 37.4053 30.8148C37.5138 30.745 37.4068 23.8565 37.5138 23.7845C37.6193 23.7139 39.7949 25.9151 39.9034 25.8798C40.0097 25.8438 42.3653 23.3576 42.4716 23.3943C42.5778 23.4296 42.2937 30.6745 42.4362 30.7803Z" fill="white"/>
<path fill-rule="evenodd" clip-rule="evenodd" d="M26.726 19.6046C26.726 19.6046 29.2436 19.402 29.2934 19.6046C29.3439 19.8064 29.2934 28.3297 29.2934 28.3297C29.2934 28.3297 33.4817 28.4017 33.4817 28.5435V30.7799C33.4817 30.7799 26.741 30.9577 26.7749 30.8137C26.8119 30.6749 26.6687 19.6046 26.726 19.6046Z" fill="white"/>
<path fill-rule="evenodd" clip-rule="evenodd" d="M22.0161 19.6046C22.0161 19.6046 24.5338 19.4381 24.6205 19.6046C24.7071 19.7712 24.8134 30.852 24.671 30.8872C24.527 30.9232 21.9611 30.8872 21.9611 30.78C21.9611 30.6749 21.925 19.6046 22.0161 19.6046Z" fill="white"/>
<path fill-rule="evenodd" clip-rule="evenodd" d="M20.1963 19.6046C20.2038 19.6249 20.356 22.0083 20.2829 22.1501C20.2129 22.2919 15.5799 22.0999 15.5799 22.0999V23.8051C15.5799 23.8051 18.2491 23.8201 18.2491 23.9259C18.2491 24.0324 18.2491 26.0213 18.1436 26.0925C18.0358 26.1638 15.5799 26.0925 15.5799 26.0925C15.5799 26.0925 15.6929 30.7154 15.5799 30.8025C15.4676 30.8872 12.6493 30.8872 12.6493 30.7454C12.6493 30.6029 12.6854 19.6046 12.7427 19.6046C12.7985 19.6046 20.1465 19.4381 20.1963 19.6046Z" fill="white"/>
</svg>
