<svg width="100" height="100" viewBox="0 0 100 100" fill="none" xmlns="http://www.w3.org/2000/svg">
<path fill-rule="evenodd" clip-rule="evenodd" d="M59.1679 0L45.5959 16.3958L28.2652 4.11544L26.8436 25.4227L5.66588 25.7621L16.9371 43.8403L0 56.6627L19.6592 64.6055L13.4351 85.0203L33.9723 79.8L40.8334 100L54.4041 83.6066L71.7348 95.8846L73.1552 74.5785L94.3341 74.2428L83.0629 56.161L100 43.3409L80.3408 35.3921L86.5661 14.9809L66.0277 20.2L59.1679 0Z" fill="#F26B32"/>
<path fill-rule="evenodd" clip-rule="evenodd" d="M49.6061 30.1621C47.7958 30.7994 44.2429 33.1813 42.6155 37.6984C40.9868 42.2142 41.9458 46.912 44.8375 48.7311C47.7243 50.5599 50.7225 50.3072 52.264 49.8408C53.9085 49.3439 54.4752 49.0753 55.5081 48.3074C56.9769 47.2148 57.4443 46.5958 58.5887 44.6144C59.6579 42.7673 60.7816 40.9971 60.2028 37.6898C58.7606 29.4247 51.4116 29.5212 49.6061 30.1621Z" fill="white"/>
<path fill-rule="evenodd" clip-rule="evenodd" d="M41.3815 36.3713C41.2035 35.0675 40.7712 33.7856 40.0193 32.699C39.1365 31.433 36.0717 29.7544 33.7576 30.4966C32.4377 30.9215 31.3854 31.8554 30.5511 32.9176C30.4373 33.0616 30.1043 33.4584 30.0921 33.622C30.1709 32.6807 30.3658 32.3621 30.0546 31.0314C29.925 30.4808 29.5811 29.9827 29.3026 29.863C26.4219 28.641 26.0392 34.562 25.8709 35.7499C25.6735 37.1844 25.5306 38.6347 25.4967 40.0839C25.3926 43.6548 25.1007 46.1124 24.9942 50.0142C24.9579 51.4145 24.93 53.5412 24.9009 55.1356C24.884 56.0781 24.752 57.3026 24.9106 58.2231C25.0245 58.8848 25.4265 59.5929 26.193 59.9799C26.8069 60.2912 27.8144 59.8309 28.1559 59.2962C28.6887 58.4746 28.7759 57.3111 28.874 56.3613C29.0072 55.1331 29.081 53.9038 29.1852 52.6756C29.2724 51.6061 29.362 50.5379 29.454 49.4697C30.1575 49.9812 30.9846 50.3304 31.8431 50.5049C35.4505 51.257 38.2804 48.0926 39.7528 45.1809C41.0982 42.5109 41.7775 39.3477 41.3815 36.3713ZM36.2569 45.082C35.3766 46.2992 33.7951 47.0854 32.3118 46.5714C30.9083 46.0941 30.5184 44.5436 30.5511 43.1995C30.5947 41.3328 31.1432 39.4588 31.9146 37.7777C32.4425 36.6265 32.9887 35.4972 33.9707 34.6035C34.5302 34.0908 35.1271 34.3459 35.5461 34.5987C36.7752 35.3336 37.1143 37.2528 37.3661 38.9949C37.6592 41.0032 37.4812 43.3899 36.2569 45.082Z" fill="white"/>
<path fill-rule="evenodd" clip-rule="evenodd" d="M76.8647 36.2758C76.6879 35.0245 76.258 33.7902 75.4879 32.7525C73.5516 30.1375 69.7808 30.4671 69.2226 30.6087C67.8894 30.9603 66.7886 31.976 65.9858 33.0016C65.6964 33.3702 65.3561 33.905 65.3501 33.9477C65.3392 33.9892 65.3634 32.3801 65.1115 31.279C65.0013 30.8016 64.7555 30.4415 64.4564 30.2827C61.4158 28.6773 61.3553 34.4714 61.2451 35.6202C61.0949 37.2 61.0864 38.3659 61.0089 39.7491C60.7946 43.6558 60.613 46.5065 60.4434 49.9297C60.355 51.7109 60.4689 52.5887 60.5052 53.9304C60.5343 54.8277 60.6069 55.6994 60.9363 56.7468C61.1312 57.3646 61.4667 57.8334 62.0745 58.2167C62.6558 58.5793 63.5385 58.2131 63.88 57.7064C64.4092 56.9153 64.5061 56.3195 64.5957 55.4112C64.7228 54.2405 64.7543 53.0196 64.8512 51.8403C64.9335 50.8221 64.9323 49.782 65.0195 48.7601C65.7182 49.2533 66.5513 49.5854 67.405 49.7575C71.0111 50.4998 73.8301 47.4795 75.2857 44.6947C76.6177 42.1554 77.2776 39.1253 76.8647 36.2758ZM71.6565 44.3529C70.7847 45.5139 69.2105 46.2598 67.721 45.7654C66.3152 45.299 65.918 43.8133 65.9422 42.5229C65.9749 40.7368 66.5198 38.9434 67.2839 37.3404C67.8082 36.2356 68.5057 34.9097 69.5435 34.1247C69.7033 34.0063 69.9746 33.9929 70.1792 34.049C71.7607 34.679 72.4787 36.8606 72.7367 38.5332C73.043 40.4572 72.8735 42.7365 71.6565 44.3529Z" fill="white"/>
<path fill-rule="evenodd" clip-rule="evenodd" d="M47.7424 37.9832C48.234 35.6465 50.3265 31.7313 50.5699 31.2942C50.8132 30.8608 50.9973 30.9121 51.1232 31.3223C51.1911 31.542 51.9818 37.1774 54.9376 37.5461C55.8373 37.6719 58.9179 37.0041 59.5658 37.5144C60.7319 38.6742 57.0119 40.514 56.3762 41.5566C55.227 43.3805 57.3643 49.8021 53.7219 46.5583C52.563 45.528 52.144 43.6576 50.7358 44.5769C49.5805 45.4889 48.9061 48.8853 47.9349 48.8707C46.965 48.8596 47.522 44.4658 46.0943 43.0484C44.801 41.5004 42.2835 39.9976 42.47 39.309C42.6396 38.6827 46.2093 37.6572 47.5014 37.9087L47.7424 37.9832Z" fill="#F26B32"/>
<path fill-rule="evenodd" clip-rule="evenodd" d="M29.3374 60.732C29.1473 60.4244 28.6641 60.2901 28.3989 60.5916C27.7995 61.2741 27.4786 62.0408 27.2788 62.8575C26.8574 62.092 26.3416 61.412 25.546 61.4377C25.3038 61.4499 25.0084 61.6 24.9611 61.8674C24.6414 63.8354 24.6729 65.8156 24.5458 67.8019C24.4973 68.5759 25.6853 68.5979 25.7337 67.8263C25.833 66.2929 25.8209 64.7498 25.9735 63.2225C26.3295 63.8061 26.6758 64.3921 27.0524 64.9573C27.3951 65.4762 28.0962 65.2821 28.1628 64.6802C28.2718 63.8098 28.3686 62.9308 28.7549 62.1628C29.6002 63.8745 30.0906 65.9487 30.0082 67.7946C29.9731 68.5674 31.1683 68.5881 31.1998 67.8153C31.3063 65.4457 30.5689 62.7476 29.3374 60.732Z" fill="white"/>
<path fill-rule="evenodd" clip-rule="evenodd" d="M35.8838 61.2577C35.8524 61.1942 35.8076 61.132 35.7446 61.0795C35.483 60.7669 35.1827 60.502 34.8425 60.3165C34.4889 60.1236 34.1547 60.3128 34.0081 60.5875C31.7074 60.8622 31.3381 65.4489 32.7972 67.2459C34.0796 68.8342 36.126 67.5414 36.6746 66.0129C37.182 64.6236 36.8562 62.5689 35.8838 61.2577ZM35.6598 65.1058C35.5654 66.2925 34.2588 67.4559 33.4705 66.146C32.7718 64.991 32.8432 60.8854 34.9502 61.9951C35.5726 62.8534 35.7361 64.1401 35.6598 65.1058Z" fill="white"/>
<path fill-rule="evenodd" clip-rule="evenodd" d="M48.5974 59.3955C47.1201 59.6762 45.6064 60.0046 44.0952 59.9009C43.3251 59.8435 43.3081 61.046 44.0722 61.0997C44.697 61.1437 45.3231 61.1181 45.9503 61.0521C45.96 61.0753 45.9661 61.101 45.9806 61.1278C46.718 62.5599 47.0159 64.4033 47.0571 66.0038C47.0765 66.7742 48.2668 66.7998 48.2438 66.027C48.1978 64.3252 47.8987 62.4475 47.1758 60.8812C47.7546 60.7823 48.3286 60.67 48.8977 60.5565C49.6448 60.4161 49.3482 59.2551 48.5974 59.3955Z" fill="white"/>
<path fill-rule="evenodd" clip-rule="evenodd" d="M56.3146 64.956C55.5251 64.2858 54.6762 63.6583 53.7607 63.1894C54.4086 62.8916 54.9789 62.4337 55.3943 61.7733C56.0009 60.8076 55.8653 59.5245 54.8772 58.8994C53.6687 58.1327 51.7288 58.814 50.995 59.9261C49.9028 61.5853 50.9768 64.0611 50.6584 65.8997C50.5252 66.6578 51.6671 67.0046 51.7991 66.2452C51.9504 65.3931 51.9226 64.5556 51.8632 63.7132C53.2074 64.0379 54.4243 64.912 55.4585 65.7911C56.0421 66.2818 56.9031 65.4565 56.3146 64.956ZM53.1989 59.8749C54.1894 59.6405 54.8869 60.1679 54.3759 61.1482C53.8758 62.1017 52.7726 62.4008 51.7688 62.4179C51.7095 61.2544 51.8305 60.1947 53.1989 59.8749Z" fill="white"/>
<path fill-rule="evenodd" clip-rule="evenodd" d="M62.1704 64.5066C61.1121 64.6897 60.055 64.719 58.993 64.6568C58.9748 64.1159 58.9567 63.5751 58.9385 63.0379C58.97 63.0392 58.9966 63.0465 59.0317 63.0428C59.6602 63.0221 60.2996 63.0025 60.8845 62.7339C61.186 62.5972 61.2623 62.1821 61.1121 61.9172C60.945 61.6132 60.5999 61.5473 60.3044 61.684C59.9315 61.8562 59.4544 61.8281 59.0535 61.8415C58.9978 61.844 58.9482 61.8525 58.8998 61.8696C58.884 61.4435 58.8695 61.0174 58.855 60.5926C58.8755 60.5853 58.8925 60.5853 58.9131 60.5767C59.7571 60.2679 60.5466 59.8393 61.4124 59.5903C62.1511 59.3779 61.8592 58.2156 61.1182 58.4293C60.2959 58.6612 59.5331 59.0666 58.7387 59.3657C58.4663 58.903 57.615 58.9799 57.6368 59.6428C57.6997 61.4948 57.7603 63.3554 57.8196 65.2098C57.8378 65.5553 58.0679 65.7958 58.4093 65.8251C59.774 65.9386 61.1157 65.9008 62.4671 65.6725C63.2203 65.5431 62.9188 64.3845 62.1704 64.5066Z" fill="white"/>
<path fill-rule="evenodd" clip-rule="evenodd" d="M69.5176 64.6532C69.0078 62.3947 68.2013 60.2167 66.9141 58.2963C66.7397 58.0424 66.3861 57.8727 66.1016 58.0656C63.8904 59.5697 64.3821 62.4325 64.0527 64.7607C63.9461 65.5212 65.1413 65.5359 65.243 64.7802C65.346 64.0672 65.3242 63.1833 65.3774 62.308C65.4622 62.3666 65.5724 62.3996 65.708 62.3959C66.322 62.3715 66.942 62.3471 67.5135 62.098C67.8647 63.0222 68.1444 63.9744 68.366 64.9511C68.5343 65.7032 69.6907 65.4077 69.5176 64.6532ZM66.9783 61.0335C66.6089 61.2056 66.1258 61.1775 65.731 61.1946C65.6426 61.1983 65.5627 61.219 65.4949 61.2508C65.6124 60.5781 65.8352 59.9652 66.2566 59.494C66.5545 59.9872 66.8221 60.4926 67.0606 61.0127C67.0316 61.0188 67.0061 61.0225 66.9783 61.0335Z" fill="white"/>
<path fill-rule="evenodd" clip-rule="evenodd" d="M70.3584 56.657C70.4093 58.4028 70.2519 60.2853 70.9433 61.9261C71.6323 63.5584 73.5347 63.75 75.0604 63.6011C75.816 63.5315 75.8439 62.3278 75.0798 62.4047C73.657 62.5402 72.2874 62.4499 71.8297 60.8823C71.4434 59.5601 71.5875 58.0439 71.5463 56.679C71.5258 55.9074 70.333 55.8769 70.3584 56.657Z" fill="white"/>
<path fill-rule="evenodd" clip-rule="evenodd" d="M43.0831 59.9845C42.8228 59.2654 41.67 59.5499 41.9291 60.2824C42.3881 61.5643 42.537 62.8901 42.4595 64.2269C41.3709 62.7228 40.4566 61.0039 38.6088 60.4167C38.2516 60.3056 37.8289 60.5937 37.8447 60.9831C37.921 63.2588 37.9973 65.5381 38.076 67.8162C38.1014 68.5841 39.2917 68.6121 39.2675 67.8381C39.2021 65.8763 39.1319 63.9144 39.0665 61.9549C40.5136 62.9011 41.3006 64.8923 42.4583 66.1143C42.7453 66.4098 43.3919 66.3304 43.4646 65.8677C43.7758 63.8826 43.7649 61.8914 43.0831 59.9845Z" fill="white"/>
<path fill-rule="evenodd" clip-rule="evenodd" d="M24.9809 72.4611C28.1026 71.8348 31.1662 71.2781 37.4582 70.1098C42.0536 69.2637 46.6188 68.2272 51.282 67.8244C59.3298 67.137 67.8025 68.2858 75.6517 66.0261C76.1906 65.8686 75.9762 65.0115 75.4301 65.1666C67.4514 67.4642 58.7739 66.302 50.5833 67.0003C46.3717 67.3641 42.2352 68.3237 38.0806 69.0977C33.0916 70.0292 29.7374 70.5932 24.7617 71.6016C24.2047 71.7127 24.4287 72.5771 24.9809 72.4611Z" fill="white"/>
<path fill-rule="evenodd" clip-rule="evenodd" d="M22.4846 61.8729C21.9324 61.9962 21.7168 61.1392 22.2666 61.0134C30.8375 59.0332 39.3115 56.2277 48.0204 54.941C51.9765 54.3586 58.3435 53.5468 58.5263 53.5334C58.7092 53.5175 58.737 54.4038 58.5106 54.438C58.2817 54.4722 52.1206 55.201 48.242 55.8053C39.5306 57.1421 31.0591 59.8903 22.4846 61.8729Z" fill="white"/>
<path fill-rule="evenodd" clip-rule="evenodd" d="M66.4595 53.4081C68.6888 53.0101 70.2606 52.7672 72.4717 52.2434C73.0263 52.1152 72.8059 51.2497 72.255 51.3864C70.0995 51.9004 66.5673 52.5218 66.3735 52.5511C66.1786 52.5792 66.2718 53.463 66.4595 53.4081Z" fill="white"/>
<path fill-rule="evenodd" clip-rule="evenodd" d="M57.5125 58.7517C58.6011 58.4929 59.2611 58.2878 60.1426 57.5834C60.4902 57.3026 60.0639 56.6897 59.7273 56.9937C58.9971 57.6542 58.3553 57.8544 57.4084 58.0851C56.9955 58.1852 57.0972 58.8518 57.5125 58.7517Z" fill="white"/>
</svg>
