<svg width="60" height="60" viewBox="0 0 60 60" fill="none" xmlns="http://www.w3.org/2000/svg">
<path fill-rule="evenodd" clip-rule="evenodd" d="M38.9635 11.8696L51.2215 8.27227L47.9513 20.5765L60 24.8429L50.0838 32.8822L57.3143 43.384L44.5495 44.0873L44.1966 56.8134L33.4508 49.9119L25.6537 60L21.0373 48.1259L8.77325 51.7277L12.0435 39.422L0 35.1571L9.91242 27.1156L2.68497 16.6182L15.4461 15.912L15.8011 3.19029L26.5462 10.0881L34.3418 0L38.9635 11.8696Z" fill="#FCCF1E"/>
<path fill-rule="evenodd" clip-rule="evenodd" d="M14.7074 25.1463C14.8846 26.6592 14.6924 28.6722 15.4482 29.8198C15.6231 29.8644 15.8167 29.9805 15.7987 30.1517C15.2889 30.1613 14.6214 30.2811 14.4802 29.8622C14.223 30.0862 13.9009 30.4404 13.4098 30.296C13.3821 30.2343 13.3888 30.1375 13.3896 30.0482C13.4113 29.9798 13.5069 29.9872 13.554 29.944C14.0511 28.5792 13.6273 26.6778 13.6774 24.8561C13.5996 24.7564 13.3985 24.778 13.3275 24.6701C13.2894 24.423 13.5323 24.2838 13.6572 24.1328C13.335 22.9815 13.6938 20.8748 13.0398 20.0777C12.8447 19.8411 12.3947 20.0792 12.3805 19.6655C12.8372 19.4794 13.474 19.6424 13.9248 19.8924C14.5086 19.2093 16.1635 18.989 17.1367 19.4794C17.639 19.9133 18.2154 20.1998 18.5779 20.8442C19.273 22.0788 18.696 24.1774 17.8984 24.8777C17.1838 25.441 15.6918 25.6196 14.7074 25.1463ZM15.0363 19.8091C14.2118 20.8182 14.6431 23.1341 14.6663 24.7534C18.5076 25.8786 18.5293 19.4593 15.0363 19.8091Z" fill="white"/>
<path fill-rule="evenodd" clip-rule="evenodd" d="M46.0909 22.0221C45.9159 22.2037 45.3464 22.0935 45.1849 21.9402C44.9113 22.0571 44.6078 22.3324 44.2789 22.1055C44.2804 21.7021 44.7446 21.5778 44.6497 20.9468C44.4419 19.576 42.4334 19.2835 41.9528 20.6156C41.4774 22.5594 42.7361 23.7077 44.0323 24.3179C45.2596 25.2556 46.9355 26.886 46.111 29.1588C45.5721 29.8784 44.6041 30.1671 43.4963 30.3167C42.8318 30.0994 42.2533 30.1307 41.6844 29.7988C40.8233 29.2994 41.1619 28.3097 40.7374 27.4211C40.6088 27.1525 40.3053 27.0818 39.9764 27.0691C39.9308 26.9984 39.9794 26.8749 39.9966 26.8005C40.3987 26.6159 41.126 26.642 41.3346 26.9865C41.5641 26.8518 42.0754 26.6129 42.3033 26.9054C42.2809 27.0609 42.1606 27.1219 41.9729 27.1115C41.3443 28.2241 41.7427 29.8226 43.373 29.6127C44.6818 29.446 45.4361 27.5677 44.711 26.2007C43.8297 24.5374 41.6388 24.2673 40.6962 22.7045C40.3337 21.9142 40.5296 20.7034 40.9437 20.0575C41.4378 19.8052 42.0387 19.352 42.6733 19.2292C43.4717 19.0767 44.0188 19.5068 44.6497 19.6846C44.8216 19.9317 45.0436 19.9883 45.2051 20.2644C45.4286 20.6431 45.4338 21.2772 45.7007 21.5674C45.8546 21.7356 46.0968 21.7527 46.0909 22.0221Z" fill="white"/>
<path fill-rule="evenodd" clip-rule="evenodd" d="M22.5297 38.5895C22.4168 39.2183 22.6979 39.9871 22.736 40.7417C22.7853 41.7069 22.7323 42.841 23.2705 43.2644C23.4125 43.3753 23.6136 43.3322 23.6008 43.4921C23.5799 43.7206 22.2202 43.7124 22.3241 43.3054C22.0311 43.5033 21.7411 43.8955 21.2336 43.74C21.0833 43.5368 21.3128 43.4631 21.3973 43.3478C21.7598 42.8529 21.6118 41.5164 21.5423 40.7819C21.4414 39.7363 21.8472 38.2918 21.1304 38.0931C21.1543 37.8297 21.3457 37.7322 21.481 37.5767C21.1655 36.5192 21.4929 34.2956 20.8628 33.5209C20.7417 33.3751 20.5167 33.3825 20.285 33.3572C20.2401 33.291 20.196 33.2262 20.2035 33.1094C20.6602 32.7217 21.3935 33.3475 21.7276 33.3349C22.0162 33.3267 22.3682 32.8393 22.7143 32.7373C23.3654 32.5431 24.4335 32.6577 24.9396 32.9233C25.0622 32.9873 25.1197 33.1444 25.2266 33.2113C25.6714 33.4949 26.096 33.7494 26.3793 34.2666C26.9384 35.5577 26.6259 37.5685 25.7222 38.3216C25.0031 38.8783 23.5149 39.0695 22.5297 38.5895ZM25.0211 37.535C25.326 37.1049 25.4606 36.3332 25.495 35.7974C25.5854 34.3968 24.2198 33.1139 22.8384 33.253C22.055 34.2711 22.4355 36.6465 22.4886 38.1973C23.494 38.4407 24.5793 38.1571 25.0211 37.535Z" fill="white"/>
<path fill-rule="evenodd" clip-rule="evenodd" d="M36.0152 38.5896C36.0069 39.3345 36.1213 40.3183 36.1385 41.1756C36.1542 41.8944 36.43 43.0688 36.7784 43.2861C36.9181 43.3731 37.0325 43.295 37.0654 43.4096C37.1499 43.6976 35.6945 43.7571 35.7887 43.3054C35.5144 43.5197 35.2004 43.8903 34.6981 43.74C34.5763 43.4922 34.7631 43.5034 34.8625 43.3873C35.2438 42.9527 35.1159 41.7277 35.0681 41.0297C35.0076 40.1389 35.0345 39.205 34.9859 38.3217C34.509 38.2383 34.5994 37.7561 34.9664 37.5976C34.6675 36.2074 34.9642 34.2205 34.1218 33.3773C33.8676 33.4049 33.68 33.3647 33.6681 33.1489C34.0896 32.8207 34.8192 33.1459 35.2131 33.3349C35.8006 32.6607 37.4488 32.4278 38.4251 32.9234C39.6113 33.5835 40.5218 34.8791 40.0501 36.811C39.9066 37.4004 39.5867 37.9228 39.2069 38.3217C38.4819 38.8686 37.0018 39.074 36.0152 38.5896ZM38.5065 37.5551C38.81 37.1414 38.964 36.2811 38.9812 35.7557C39.0231 34.3574 37.6918 33.1303 36.3239 33.2531C35.9711 33.5158 35.8462 34.3366 35.8305 34.9699C35.8036 36.0199 35.9068 37.2947 35.9539 38.1974C36.9503 38.431 38.058 38.1684 38.5065 37.5551Z" fill="white"/>
<path fill-rule="evenodd" clip-rule="evenodd" d="M21.9545 19.3543C21.6839 19.672 21.1831 20.0799 21.068 20.6573C21.0164 20.9223 21.1323 21.3293 21.1517 21.63C21.2175 22.6889 21.0807 24.2874 21.6458 24.7332C21.2332 25.3293 21.3423 26.9307 21.4813 28.0619C21.5494 28.6178 21.8469 29.0412 22.1189 29.3649C22.8829 29.8405 24.1088 29.5956 24.4459 28.8894C24.7232 27.7508 24.8667 25.8398 24.342 24.8977C24.5019 24.7592 24.6126 24.5159 24.6507 24.2145C24.8555 22.6554 24.6118 20.4341 23.7253 19.8931C23.5108 19.8998 23.3867 19.8186 23.2723 19.7264C23.4689 19.3022 24.4533 19.5173 24.7748 19.707C25.1582 19.4384 25.6605 19.3208 26.34 19.3126C26.3751 19.3878 26.3916 19.4823 26.3804 19.6021C25.6344 19.9585 25.5477 20.7816 25.5985 21.9403C25.6396 22.8824 25.5499 24.1036 25.7839 24.6297C25.8497 24.7764 26.0597 24.827 26.0724 24.981C26.0888 25.1931 25.8444 25.3784 25.8041 25.5801C25.585 26.6933 25.9715 28.14 25.4946 29.0129C24.9758 29.6946 24.123 30.3599 22.9629 30.1925C22.1922 30.3391 21.4253 29.9834 20.9446 29.6336C19.9879 28.7272 20.5447 26.6167 20.1015 25.1879C19.9767 25.1045 19.7546 25.1216 19.7098 24.9594C19.7763 24.8545 19.8855 24.792 20.0387 24.7734C20.2532 23.3892 20.1 21.566 19.8137 20.347C19.7935 19.9638 19.0946 20.2644 19.0303 19.9749C18.9803 19.745 19.6649 19.3409 19.9572 19.3342C20.1575 19.329 20.4416 19.4756 20.5956 19.5403C20.8736 19.3491 21.6331 19.1667 21.9545 19.3543Z" fill="white"/>
<path fill-rule="evenodd" clip-rule="evenodd" d="M32.0835 23.3251C31.3959 23.1405 30.8278 23.4166 30.2515 23.0974C30.3299 22.9084 30.5542 22.8652 30.6633 22.706C30.7762 21.6321 30.4884 19.7129 29.3253 20.0783C28.4657 20.3484 28.1278 22.3197 28.2743 23.6362C28.3155 23.9986 28.687 24.3044 28.6668 24.5247C28.6369 24.8216 28.2542 25.0881 28.2123 25.4765C28.1435 26.1336 28.2385 26.9589 28.2542 27.6272C28.2714 28.3654 28.5666 28.9295 28.8925 29.3031C29.2648 29.5799 30.1632 29.6402 30.6424 29.3239C31.2576 28.9191 31.4721 27.5773 30.9511 26.9247C30.8771 26.8309 30.5213 26.7759 30.5803 26.5935C30.688 26.2646 31.6007 26.6925 31.6313 26.697C31.9811 26.7446 32.3952 26.1954 32.825 26.5102C32.8355 26.886 32.5126 26.9284 32.2898 27.0691C31.9946 27.8177 32.2256 29.0047 31.6717 29.6342C30.9376 30.4714 28.9045 30.4499 27.926 29.7987C27.5239 29.2346 27.1404 28.6638 27.1008 27.6488C27.0642 26.6895 27.3564 25.5859 27.2047 24.835C27.1598 24.614 26.8623 24.5545 26.7315 24.422C26.7375 24.1177 27.1292 24.2025 27.1838 23.9457C27.2039 22.4306 26.8616 20.4265 28.0075 19.7069C28.1876 19.5916 28.4545 19.6005 28.6242 19.5209C29.335 19.183 30.0586 19.2165 30.7455 19.5209C31.6448 19.919 31.8249 20.5717 31.7135 21.7541C31.6642 22.2661 31.715 22.8898 32.0835 23.078V23.3251Z" fill="white"/>
<path fill-rule="evenodd" clip-rule="evenodd" d="M39.3343 19.4371C39.4307 19.7094 39.2999 20.0443 39.2977 20.4715C39.2969 20.6799 39.4165 21.6607 39.1893 21.651C39.0234 21.6428 39.063 21.2812 39.0077 21.0705C38.6638 19.7526 36.4864 20.3308 35.2426 20.3881C34.8524 21.4225 35.0288 22.8454 35.043 24.2147C35.339 24.2601 35.7195 24.2311 35.9661 24.1529C36.2763 23.8121 35.644 23.4861 36.0207 23.2636C36.7039 23.3968 36.7532 25.6755 35.8039 25.4359C35.7277 25.2335 35.8271 25.0519 35.8936 24.8986C35.6866 24.7966 35.3457 24.848 35.0609 24.8361C35.0804 26.3989 34.9264 28.4952 35.6223 29.3651C36.8713 29.22 38.474 29.4775 39.1714 28.7036C39.3493 28.4692 39.1011 27.7652 39.4248 27.7525C39.7761 27.7369 39.7252 29.4314 39.714 29.9024C39.5578 30.1034 39.1213 29.9843 38.8455 30.0476C37.9769 29.8861 36.452 30.1398 35.3323 30.0691C35.0535 30.0513 34.6476 29.9054 34.4457 29.9642C34.3336 29.997 34.3194 30.1815 34.2103 30.2544C33.7969 30.5305 33.0479 30.1666 33.0509 29.738C33.3454 29.6539 33.6885 29.7305 33.8664 29.4485C34.1056 28.5986 34.084 27.3819 34.084 26.2634C34.084 25.8147 34.152 25.162 34.0473 24.8986C33.9823 24.7356 33.6385 24.7126 33.631 24.5049C33.6228 24.266 34.0354 24.2266 34.1019 24.0078C34.3134 23.3135 34.1542 21.7902 34.1191 20.8845C34.0982 20.3204 34.14 19.8955 33.8664 19.603C33.6609 19.6112 33.4209 19.8724 33.2685 19.6864C33.3709 19.4601 33.6766 19.2362 33.9569 19.2518C34.7231 19.2912 35.6417 19.4922 36.6 19.4788C37.5471 19.4646 38.4979 19.414 39.3343 19.4371Z" fill="white"/>
<path fill-rule="evenodd" clip-rule="evenodd" d="M27.6155 33.7915C28.2306 32.4833 30.4626 32.2578 31.8148 33.1091C32.5048 33.6903 32.8665 34.8647 33.0101 36.0665C33.0743 36.609 33.0168 37.0949 33.1745 37.4938C33.2209 37.6092 33.4608 37.7193 33.4832 37.8667C33.5161 38.084 33.3248 38.1658 33.2769 38.3005C33.1042 38.7991 33.2081 39.5693 33.1745 40.0583C33.0833 41.3576 32.6535 42.3183 31.98 43.0164C30.9522 44.082 28.9639 43.6742 28.0677 42.4582C28.0811 42.1554 27.8584 42.0891 27.7806 41.8785C27.747 41.2564 27.4181 40.7451 27.3479 40.1208C27.3052 39.7398 27.3598 39.2851 27.2447 38.8795C27.1819 38.6562 26.696 38.3757 26.6893 38.1971C26.6841 38.0616 26.9038 38.0036 26.9577 37.9068C27.155 37.5511 27.0264 36.8784 27.0391 36.3977C27.0653 35.4139 27.3688 34.4955 27.6155 33.7915ZM32.2073 37.4522C32.2992 36.4148 31.8559 35.4339 31.61 34.5357C31.2303 33.7 29.5215 33.3517 28.6866 33.9977C27.9571 34.7873 27.7134 36.4535 28.0281 37.7625C28.203 37.8629 28.2994 38.0408 28.3562 38.2596C27.75 38.6265 28.0415 39.867 28.2538 40.6796C28.4452 41.4164 28.875 42.0207 29.325 42.4374C29.9783 42.7529 30.9664 42.6629 31.465 42.2714C32.0189 41.3293 32.7245 39.5433 32.1856 38.1145C31.7274 38.0497 31.8746 37.6055 32.2073 37.4522Z" fill="white"/>
</svg>
